<?xml version="1.0" encoding="utf-8"?>
<!-- Generator: Adobe Illustrator 24.1.0, SVG Export Plug-In . SVG Version: 6.00 Build 0)  -->
<svg version="1.1" id="Layer_1" xmlns="http://www.w3.org/2000/svg" xmlns:xlink="http://www.w3.org/1999/xlink" x="0px" y="0px"
	 viewBox="0 0 90 90" style="enable-background:new 0 0 50 50;" xml:space="preserve">
<style type="text/css">
	.st0{fill:none;stroke:#FFFFFF;stroke-width:2; with: 20%;stroke-linecap:round;stroke-linejoin:round;stroke-miterlimit:10;}
</style>
<g>
	<path class="st0" d="M18.2,65.6c14.4-0.1,25.2,2.7,25.2,10.6c0,0,0-53,0-58.3c0-8-10.7-10.6-25.2-10.6V65.6z"/>
	<polyline class="st0" points="76.5,17.9 81.8,17.9 81.8,21.9 	"/>
	<polyline class="st0" points="81.8,73.6 81.8,77.5 54,77.5 48.6,81.5 38,81.5 32.7,77.5 4.9,77.5 4.9,17.9 10.2,17.9 	"/>
	<path class="st0" d="M18.2,12.6h-8v58.3c0,0,29.2-0.2,33.1,5.3"/>
	<path class="st0" d="M43.3,76.2c0,0,4-4,8-4c2.7,0,19.9,0,19.9,0"/>
	<path class="st0" d="M76.5,20.5v-6.6c0,0-22.5,0-25.2,0c-4,0-8,4-8,4"/>
	<path class="st0" d="M71.2,64.3c0,2.9,2.4,5.3,5.3,5.3c2.9,0,5.3-2.4,5.3-5.3V31.1c0-2.9-2.4-5.3-5.3-5.3c-2.9,0-5.3,2.4-5.3,5.3
		V64.3z"/>
	<path class="st0" d="M71.2,36.4h13.3c1.5,0,2.7,1.2,2.7,2.7v8"/>
	<line class="st0" x1="81.8" y1="31.1" x2="71.2" y2="31.1"/>
	<line class="st0" x1="81.8" y1="63" x2="71.2" y2="63"/>
	<line class="st0" x1="76.5" y1="69.6" x2="76.5" y2="72.2"/>
</g>
</svg>
