<?xml version="1.0" encoding="utf-8"?>
<!-- Generator: Adobe Illustrator 24.1.0, SVG Export Plug-In . SVG Version: 6.00 Build 0)  -->
<svg version="1.1"
	 id="svg2996" inkscape:version="0.48.4 r9939" sodipodi:docname="no payment.svg" xmlns:cc="http://creativecommons.org/ns#" xmlns:dc="http://purl.org/dc/elements/1.1/" xmlns:inkscape="http://www.inkscape.org/namespaces/inkscape" xmlns:rdf="http://www.w3.org/1999/02/22-rdf-syntax-ns#" xmlns:sodipodi="http://sodipodi.sourceforge.net/DTD/sodipodi-0.dtd" xmlns:svg="http://www.w3.org/2000/svg"
	 xmlns="http://www.w3.org/2000/svg" xmlns:xlink="http://www.w3.org/1999/xlink" x="0px" y="0px"
	 viewBox="828.8 1793 3483.4 3192.9" enable-background="new 828.8 1793 3483.4 3192.9" xml:space="preserve">
<sodipodi:namedview  bordercolor="#666666" borderopacity="1" gridtolerance="10" guidetolerance="10" id="namedview6" inkscape:current-layer="svg2996" inkscape:cx="-3944.7781" inkscape:cy="249.73375" inkscape:pageopacity="0" inkscape:pageshadow="2" inkscape:window-height="1027" inkscape:window-maximized="1" inkscape:window-width="1920" inkscape:window-x="-8" inkscape:window-y="-8" inkscape:zoom="0.11523437" objecttolerance="10" pagecolor="#ffffff" showgrid="false">
	</sodipodi:namedview>
<g>
	<g>
		<g>
			<path fill="#FFFFFF" d="M2564.9,4911c-248,0-493.4-64-716.3-189.7c-462.6-260.8-756.5-758.1-767.2-1297.9
				c-0.4-22.8,17.7-41.6,40.4-42.1c0.3,0,0.5,0,0.8,0c22.4,0,40.8,17.9,41.2,40.4c10,510.7,287.9,981.1,725.2,1227.7
				c325.3,183.4,701.5,227.6,1059,124.4c363.5-104.9,664.2-348.6,846.8-686.4c10.9-20,35.9-27.5,55.9-16.7
				c20,10.8,27.5,35.9,16.7,55.9c-193.2,357.4-511.6,615.3-896.6,726.4C2837,4891.9,2700.5,4911,2564.9,4911z"/>
		</g>
		<g>
			<path fill="#FFFFFF" d="M905,3728.9c-9.2,0-18.5-3.1-26.2-9.4c-17.6-14.5-20.1-40.5-5.7-58.1l217.9-265
				c7.1-8.6,17.2-13.9,28.3-14.9c11.2-0.9,22,2.6,30.4,9.8l259.6,222.5c17.3,14.8,19.3,40.9,4.5,58.2c-14.8,17.3-40.9,19.3-58.2,4.5
				l-227.6-195.1l-191.2,232.5C928.8,3723.8,916.9,3728.9,905,3728.9z"/>
		</g>
	</g>
	<g>
		<g>
			<path fill="#FFFFFF" d="M4011.1,3407.4c-22.4,0-40.8-17.9-41.2-40.4c-10.1-510.7-287.9-981.1-725.2-1227.6
				c-325.3-183.4-701.4-227.6-1059-124.5c-363.5,104.9-664.2,348.6-846.8,686.4c-10.8,20-35.9,27.5-55.9,16.7
				c-20-10.8-27.5-35.9-16.7-55.9c193.2-357.4,511.6-615.3,896.6-726.4c379-109.3,777.6-62.5,1122.4,131.9
				c462.6,260.8,756.5,758.1,767.1,1297.9c0.4,22.8-17.7,41.6-40.4,42.1C4011.7,3407.4,4011.4,3407.4,4011.1,3407.4z"/>
		</g>
		<g>
			<path fill="#FFFFFF" d="M4011,3407.5c-9.8,0-19.3-3.5-26.9-9.9l-259.6-222.5c-17.3-14.8-19.3-40.9-4.5-58.2
				c14.8-17.3,40.9-19.3,58.2-4.5l227.6,195.1l191.2-232.5c14.5-17.6,40.4-20.1,58.1-5.7c17.6,14.5,20.1,40.5,5.7,58.1l-217.9,265
				c-7,8.6-17.2,13.9-28.3,14.9C4013.4,3407.5,4012.2,3407.5,4011,3407.5z"/>
		</g>
	</g>
</g>
<g>
	<g>
		<path fill="#FFFFFF" d="M2542.7,2814.7c-99.3,0-180.1-77.1-180.1-171.9c0-94.8,80.8-171.9,180.1-171.9
			c99.3,0,180.1,77.1,180.1,171.9C2722.7,2737.6,2642,2814.7,2542.7,2814.7z M2542.7,2527.4c-66.7,0-121,51.8-121,115.5
			c0,63.7,54.3,115.5,121,115.5c66.7,0,121-51.8,121-115.5C2663.7,2579.2,2609.4,2527.4,2542.7,2527.4z"/>
	</g>
	<g>
		<path fill="#FFFFFF" d="M2051.2,4339.8c-41.6,0-78.9-18.4-103.2-47.1c-24.3,28.7-61.6,47.1-103.2,47.1
			c-73.2,0-132.7-56.8-132.7-126.7v-534.4c-12.6,6.7-26.7,11.1-41.7,12.4c-31.4,2.8-62.7-7.1-85.9-27.2
			c-23.2-20.1-36.5-48.9-36.5-78.8v-413.2c0-101.9,86.8-184.8,193.6-184.8h409.2c9.6,0,18.6,4.5,24.1,12c5.5,7.5,6.9,17.1,3.7,25.7
			c-5.8,15.6-8.8,31.6-8.8,47.6v448.8c0,10.5,3.2,20.6,9.5,30.1c3,4.5,4.5,9.7,4.6,15c0,0,0,7.1,0.1,14.5c0,0.4,0,0.7,0,1.1
			c0,1.3,0,2.6,0,3.9v1.2c0,4.9,0,8.9,0,9.5h0v616.5C2183.9,4283,2124.4,4339.8,2051.2,4339.8z M1977.5,4213.1
			c0,38.8,33.1,70.3,73.7,70.3c40.6,0,73.7-31.5,73.7-70.3v-631c0-0.5,0-0.9,0-1.4c0-2.1-0.1-4.3-0.1-6.5
			c-9.3-16.5-14.1-34.6-14.1-52.8v-448.8c0-9.7,0.8-19.4,2.3-29h-371.4c-74.2,0-134.6,57.6-134.6,128.4v413.2
			c0,14.1,6.3,27.6,17.2,37.1c11.1,9.6,25.5,14.2,40.6,12.8c26.5-2.4,47.3-25.8,47.3-53.2v-283.7c0-15.6,13.2-28.2,29.5-28.2
			c16.3,0,29.5,12.6,29.5,28.2v915c0,38.8,33,70.3,73.7,70.3c40.6,0,73.7-31.5,73.7-70.3v-476.4c0-15.6,13.2-28.2,29.5-28.2
			c16.3,0,29.5,12.6,29.5,28.2V4213.1z"/>
	</g>
	<g>
		<path fill="#FFFFFF" d="M1948,2936.9c-92.7,0-168.1-72-168.1-160.5s75.4-160.4,168.1-160.4c92.7,0,168.1,72,168.1,160.4
			S2040.7,2936.9,1948,2936.9z M1948,2672.3c-60.1,0-109.1,46.7-109.1,104.1c0,57.4,48.9,104.1,109.1,104.1
			c60.1,0,109.1-46.7,109.1-104.1C2057.1,2719,2008.1,2672.3,1948,2672.3z"/>
	</g>
	<g>
		<path fill="#FFFFFF" d="M3240.5,4339.8c-41.6,0-78.8-18.4-103.2-47.1c-24.3,28.7-61.6,47.1-103.2,47.1
			c-73.2,0-132.7-56.8-132.7-126.7v-631.3c0-2.8,0.4-5.6,1.3-8.3c6.2-19.2,12.9-44.7,12.9-52.1v-448.8c0-16-3-32-8.8-47.7
			c-3.2-8.6-1.9-18.2,3.7-25.7c5.5-7.5,14.5-11.9,24.1-11.9h409.1c106.8,0,193.6,82.9,193.6,184.8v413.2c0,29.9-13.3,58.7-36.5,78.8
			c-23.2,20.1-54.5,29.9-85.9,27.2c-14.9-1.4-29-5.7-41.6-12.5v534.4C3373.2,4283,3313.7,4339.8,3240.5,4339.8z M3166.8,4213.1
			c0,38.8,33,70.3,73.7,70.3c40.6,0,73.7-31.5,73.7-70.3V3584c-0.1-0.7-0.1-1.4-0.1-2.2v-283.7c0-15.6,13.2-28.2,29.5-28.2
			c16.3,0,29.5,12.6,29.5,28.2v281.8c0.1,0.7,0.1,1.4,0.1,2.1c0.1,27.4,20.8,50.7,47.3,53.1c14.9,1.4,29.5-3.2,40.6-12.8
			c10.9-9.5,17.2-23,17.2-37.1v-413.2c0-70.8-60.4-128.4-134.5-128.4h-371.4c1.5,9.6,2.3,19.3,2.3,29v448.8
			c0,17.6-9.6,50.2-14.2,64.7v627.1c0,38.8,33.1,70.3,73.7,70.3s73.7-31.5,73.7-70.3v-476.4c0-15.6,13.2-28.2,29.5-28.2
			c16.3,0,29.5,12.6,29.5,28.2V4213.1z"/>
	</g>
	<g>
		<path fill="#FFFFFF" d="M2654.8,4338.6c-45.6,0-86.2-20.6-112.1-52.6c-25.9,32-66.5,52.6-112.1,52.6
			c-78.1,0-141.6-60.6-141.6-135.2v-584.6c-14.4,8.3-30.7,13.7-48,15.3c-44.6,4-87.4-16-111.5-52.5c-12.2-18.4-18.7-39.2-18.7-60.2
			v-448.8c0-22.5,4.1-44.9,12.3-66.6c29.5-78.7,108-131.6,195.5-131.6h448.4c87.5,0,166,52.9,195.5,131.6c0,0,0,0,0,0
			c8.1,21.7,12.2,44.1,12.2,66.6v448.8c0,21.1-6.5,42-18.8,60.5c-24.2,36.2-66.8,56.2-111.4,52.2c-17.4-1.6-33.6-7-48-15.3v584.7
			C2796.4,4277.9,2732.9,4338.6,2654.8,4338.6z M2542.7,4175.2c16.3,0,29.5,12.6,29.5,28.2c0,43.5,37,78.8,82.6,78.8
			c45.5,0,82.6-35.4,82.6-78.8V3518c0-15.5,13.2-28.2,29.5-28.2c0,0,0,0,0.1,0c16.3,0,29.5,12.5,29.5,28.1c0.1,31,23.7,57.3,53.6,60
			c22.2,2.1,43.8-8,56-26.3c6.4-9.5,9.6-19.7,9.6-30.3v-448.8c0-16-3-32-8.8-47.7c-21.1-56.4-77.3-94.2-139.9-94.2h-448.4
			c-62.6,0-118.8,37.9-139.9,94.2c-5.9,15.6-8.8,31.6-8.8,47.7v448.8c0,10.5,3.2,20.6,9.5,30.1c12.2,18.4,33.7,28.6,56,26.5
			c30.1-2.7,53.6-29.2,53.6-60.3c0-15.6,13.2-28.2,29.5-28.2c16.3,0,29.5,12.6,29.5,28.2v685.7c0,43.5,37.1,78.8,82.6,78.8
			s82.6-35.4,82.6-78.8C2513.1,4187.8,2526.4,4175.2,2542.7,4175.2z"/>
	</g>
	<g>
		<path fill="#FFFFFF" d="M3137.3,2936.9c-92.7,0-168.1-72-168.1-160.5s75.4-160.4,168.1-160.4c92.7,0,168.1,72,168.1,160.4
			S3230,2936.9,3137.3,2936.9z M3137.3,2672.3c-60.1,0-109.1,46.7-109.1,104.1c0,57.4,48.9,104.1,109.1,104.1
			c60.1,0,109.1-46.7,109.1-104.1C3246.3,2719,3197.4,2672.3,3137.3,2672.3z"/>
	</g>
	<g>
		<path fill="#FFFFFF" d="M2542.7,4231.6c-16.3,0-29.5-12.6-29.5-28.2v-514.5c0-15.6,13.2-28.2,29.5-28.2
			c16.3,0,29.5,12.6,29.5,28.2v514.5C2572.2,4218.9,2559,4231.6,2542.7,4231.6z"/>
	</g>
	<g>
		<path fill="#FFFFFF" d="M2318.5,3545.9c-16.3,0-29.5-12.6-29.5-28.2v-350c0-15.6,13.2-28.2,29.5-28.2c16.3,0,29.5,12.6,29.5,28.2
			v350C2348,3533.2,2334.8,3545.9,2318.5,3545.9z"/>
	</g>
	<g>
		<path fill="#FFFFFF" d="M2766.9,3546.2c-16.3,0-29.5-12.6-29.5-28.2v-350.3c0-15.6,13.2-28.2,29.5-28.2
			c16.3,0,29.5,12.6,29.5,28.2V3518C2796.4,3533.5,2783.2,3546.2,2766.9,3546.2z"/>
	</g>
</g>
</svg>
