<?xml version="1.0" encoding="utf-8"?>
<!-- Generator: Adobe Illustrator 23.0.3, SVG Export Plug-In . SVG Version: 6.00 Build 0)  -->
<svg version="1.1" id="Layer_1" xmlns="http://www.w3.org/2000/svg" xmlns:xlink="http://www.w3.org/1999/xlink" x="0px" y="0px"
	 viewBox="0 0 100 100" style="enable-background:new 0 0 100 100;" xml:space="preserve">
<style type="text/css">
	.st0{fill:#FFFFFF;}
	.st1{fill:none;stroke:#FFFFFF;stroke-width:1.5;stroke-miterlimit:10;}
</style>
<g>
	<path class="st0" d="M72.3,22.4c-5.6,0-10.2,4.6-10.2,10.2s4.6,10.2,10.2,10.2s10.2-4.6,10.2-10.2S77.9,22.4,72.3,22.4z M72.3,41.1
		c-4.6,0-8.4-3.8-8.4-8.4s3.8-8.4,8.4-8.4s8.4,3.8,8.4,8.4S77,41.1,72.3,41.1z"/>
	<g>
		<path class="st1" d="M29.1,72.2v1.5c0,0.7-0.6,1.3-1.3,1.3H17.5c-0.7,0-1.3-0.6-1.3-1.3V51.9c0-0.7,0.6-1.3,1.3-1.3h10.2
			c0.7,0,1.3,0.6,1.3,1.3v20.3H29.1z M85.3,65.4c-0.7,0.5-1.3,0.9-2,1.3c-29.5,19-47.4,6.8-51.3,4.7V54.2c1.6,0,3.1,0,4.4,0.1h0.1
			C47,54.6,49.1,55.8,51,56.9c2.3,1.3,4.3,2.5,15.1,2.3c0,0,1.1,0,1.8,0.7c0.5,0.5,0.7,1.4,0.7,2.6c0,0.3-0.1,0.7-0.6,1.1
			c-1.2,1-5.1,2.4-17.3,0.8c-0.8-0.1-1.6,0.5-1.7,1.3c-0.1,0.8,0.5,1.6,1.3,1.7c3.8,0.5,7,0.7,9.8,0.7c3.3,0,5.8-0.3,7.6-1h0.1
			c4.6-1.5,8.5-2.9,11.5-4.1c4.6-1.7,6.4-0.6,7.2-0.3c0.5,0.4,0.5,0.7,0.4,0.8C86.8,64.1,85.9,65,85.3,65.4z"/>
		<path class="st1" d="M22.6,61.3c-0.8,0-1.5,0.7-1.5,1.5v7.4c0,0.8,0.7,1.5,1.5,1.5s1.5-0.7,1.5-1.5v-7.4
			C24.1,62,23.5,61.3,22.6,61.3z"/>
		<path class="st0" d="M74.7,32.2c-0.3-0.1-0.7-0.3-1.3-0.5v-2.9c0.2,0,0.3,0.1,0.5,0.1c0.3,0.1,0.6,0.2,0.8,0.2
			c0.2,0,0.4-0.1,0.6-0.2c0.1-0.2,0.2-0.4,0.2-0.6s-0.1-0.4-0.2-0.5c-0.4-0.3-1-0.6-1.8-0.7v-0.6c0-0.5-0.4-0.9-0.9-0.9
			s-0.9,0.4-0.9,0.9v0.7c-0.8,0.2-1.5,0.5-1.9,0.9c-0.6,0.6-0.9,1.4-0.9,2.3s0.4,1.5,1,2c0.3,0.2,0.7,0.4,1.1,0.5
			c0.1,0,0.4,0.1,0.7,0.2v3.4c-0.3-0.1-0.7-0.2-1-0.3c-0.5-0.2-0.9-0.3-1.1-0.3s-0.4,0.1-0.5,0.2c-0.1,0.2-0.2,0.4-0.2,0.6
			c0,0.2,0.1,0.4,0.3,0.6c0.5,0.4,1.4,0.7,2.6,0.8v0.6c0,0.5,0.4,0.9,0.9,0.9s0.9-0.4,0.9-0.9V38c0.8-0.2,1.4-0.5,1.9-0.9
			c0.7-0.6,1-1.4,1-2.3c0-0.6-0.1-1.1-0.3-1.4C75.7,32.9,75.3,32.5,74.7,32.2z M71.6,31.1c-0.6-0.3-0.9-0.7-0.9-1
			c0-0.5,0.3-0.9,0.9-1.2V31.1z M73.4,36.3v-2.6c0.6,0.3,0.9,0.7,0.9,1.2C74.4,35.5,74.1,36,73.4,36.3z M51.7,26.9
			c-0.7,0-1.2,0.6-1.2,1.2c0,0.7,0.5,1.2,1.2,1.2s1.2-0.5,1.2-1.2C52.9,27.5,52.3,26.9,51.7,26.9z M51.7,43.5
			c-0.7,0-1.2,0.5-1.2,1.2v0.1c0,0.7,0.5,1.2,1.2,1.2s1.2-0.5,1.2-1.2v-0.1C52.9,44,52.3,43.5,51.7,43.5z M51.7,32.4
			c-0.7,0-1.2,0.5-1.2,1.2v0.1c0,0.7,0.5,1.2,1.2,1.2s1.2-0.5,1.2-1.2v-0.1C52.9,33,52.3,32.4,51.7,32.4z M51.7,38
			c-0.7,0-1.2,0.5-1.2,1.2v0.1c0,0.7,0.5,1.2,1.2,1.2s1.2-0.5,1.2-1.2v-0.1C52.9,38.5,52.3,38,51.7,38z M51.7,49.1
			c-0.7,0-1.2,0.5-1.2,1.2s0.5,1.2,1.2,1.2s1.2-0.5,1.2-1.2S52.3,49.1,51.7,49.1z M52.6,19.4C52.6,19.4,52.5,19.4,52.6,19.4
			l-0.1-0.1l-0.1-0.1h-0.1c0,0-0.1,0-0.1-0.1h-0.1H52h-0.1h-0.1h-0.1h-0.1h-0.1h-0.1h-0.1c0,0-0.1,0-0.1,0.1c0,0-0.1,0-0.1,0.1
			L51,19.4l-0.1,0.1l-3.4,4c-0.4,0.5-0.4,1.3,0.1,1.7c0.2,0.2,0.5,0.3,0.8,0.3s0.7-0.1,0.9-0.4l2.5-3l2.5,3c0.2,0.3,0.6,0.4,0.9,0.4
			c0.3,0,0.6-0.1,0.8-0.3c0.5-0.4,0.6-1.2,0.1-1.7L52.6,19.4L52.6,19.4z"/>
		<path class="st0" d="M87.5,44.9c-0.3,0-7.9,0.2-10.2,4.1c-0.9,1.6-0.9,3.5,0.1,5.7l-3.9,3.9V46.3c7-0.6,12.5-6.5,12.5-13.6
			C86,25.1,79.9,19,72.3,19c-7.5,0-13.7,6.1-13.7,13.7c0,7.1,5.5,13,12.5,13.6v12.2c0,1.1,0.9,2,2,2c0.7,0,1.2-0.3,1.6-0.8l3.9-3.9
			c1.1,0.5,2.2,0.8,3.2,0.8c6.4,0,6.6-10.5,6.6-10.9c0-0.2-0.1-0.5-0.3-0.6C88,45,87.7,44.9,87.5,44.9z M72.3,44.6
			c-6.6,0-11.9-5.3-11.9-11.9s5.3-11.9,11.9-11.9s11.9,5.3,11.9,11.9C84.2,39.2,78.9,44.6,72.3,44.6z M81.8,54.9
			c-0.5,0-1.2-0.1-1.8-0.4l3.1-3.1c0.4-0.3,0.4-0.9,0-1.3c-0.3-0.4-0.9-0.4-1.3,0l-3.1,3.1c-0.5-1.3-0.5-2.5,0-3.4
			c1.3-2.2,5.4-3,7.7-3.2C86.3,49.1,85.5,54.9,81.8,54.9z"/>
	</g>
</g>
</svg>
