<?xml version="1.0" encoding="utf-8"?>
<!-- Generator: Adobe Illustrator 23.0.3, SVG Export Plug-In . SVG Version: 6.00 Build 0)  -->
<svg version="1.1" id="Layer_1" xmlns="http://www.w3.org/2000/svg" xmlns:xlink="http://www.w3.org/1999/xlink" x="0px" y="0px"
	 viewBox="0 0 100 100" style="enable-background:new 0 0 100 100;" xml:space="preserve">
<style type="text/css">
	.st0{fill:#FFFFFF;}
</style>
<g>
	<path class="st0" d="M50.5,43.6c2.9,0,5.3-2.4,5.3-5.3S53.4,33,50.5,33s-5.3,2.4-5.3,5.3C45.3,41.3,47.6,43.6,50.5,43.6z
		 M50.5,34.8c2,0,3.6,1.6,3.6,3.6S52.5,42,50.5,42s-3.6-1.6-3.6-3.6S48.5,34.8,50.5,34.8z"/>
	<path class="st0" d="M84.4,66.7c0-0.2,0.1-0.4,0.1-0.6V30.5c0-2.1-1.7-3.8-3.8-3.8H59.2c-3.2-5.8-7.6-9.7-7.9-10
		c-0.5-0.4-1.2-0.4-1.7,0c-0.3,0.2-4.7,4.1-7.9,10H20.3c-2.1,0-3.8,1.7-3.8,3.8v35.7c0,0.2,0,0.4,0.1,0.6c-2,0.1-3.6,1.8-3.6,3.8
		v2.2c0,2.1,1.7,3.8,3.8,3.8h67.4c2.1,0,3.8-1.7,3.8-3.8v-2.2C88,68.5,86.4,66.8,84.4,66.7z M25,62.6c0.8,0,1.9,0.3,2.4,0.8
		c0.3,0.3,0.9,0.4,1.4,0.3c0.4-0.1,0.4-0.4,0.5-0.8c0.5-2,2.5-3.5,4.5-4c0.1,0.3,0.3,0.7,0.4,1.1c0.2,0.4,0.6,0.7,1.1,0.8h0.1
		c0.5,0,0.9-0.2,1.1-0.6c0,0,0.4-0.6,1-1.2c2.6,0.7,4.8,3,4.7,5.7c0,0.4-0.4,1.5-0.6,2.2H21.4C21.5,65,23.3,62.6,25,62.6z M48,60.7
		c0.4-1.7,0.5-7.3,0.5-7.3h4.1c0,0-0.3,5.3,0.5,7.8c0.5,1.6,3,5.4,3,5.4H45.3C45.3,66.7,47.4,63.2,48,60.7z M58.3,66.7h2.4
		c-1.6-1.1-1.9-2.5-1.9-4.1c0-1.9,1.5-3.8,3.4-4.9c1.4,1.1,2.2,2.3,2.2,2.4c0.2,0.4,0.7,0.6,1.1,0.6h0.1c0.5,0,0.9-0.3,1.1-0.8
		c0.4-1,0.8-2,1-2.9c1.7,0.5,3.2,1.6,3.7,3.2c0.1,0.3,0.2,0.9,0.5,1.1c0.3,0.1,1-0.1,1.4-0.3c0.5-0.3,1.3-0.3,1.9-0.3
		c2,0,3.5,1.7,3.5,3.5c0,0.7,0.1,1.9-0.3,2.4h0.5L58.3,66.7L58.3,66.7z M77.8,59.7c-0.9-0.5-2-0.8-3.2-0.8c-0.5,0-1.1,0.1-1.6,0.2
		c-1-1.8-2.8-3.1-4.8-3.8c1.7-8.7-3.9-13.7-5.8-15.2c0-0.7,0.1-1.3,0.1-2c0-1.6-0.2-3.2-0.6-4.7h14.6c0.5,0,1.3,0.5,1.3,1.4
		C77.8,34.8,77.8,59.7,77.8,59.7z M61.7,45.2c0.1-0.6,0.2-1.3,0.3-1.9c2.2,2,5.3,6.4,3.1,13.6c-1.2-1.3-3.3-2.8-6.1-3.5
		C60.2,51,61.2,48.3,61.7,45.2z M60.4,56.6c-2,1.5-3.3,3.7-3.3,6.3c0,1.2,0.3,2.3,0.8,3.3c-1.4-1.9-3.9-5.4-3.8-8.7v-1.6
		c0.7-0.1,1.8-0.2,2.8-0.2C58.2,55.7,59.4,56.1,60.4,56.6z M46.9,57.5c0,3.1-1.8,6.3-3,8.2v-0.3c0-3.5-1.9-6.5-4.9-7.8
		c1.2-0.9,2.9-1.8,5-1.9c0.8,0,2,0.1,2.8,0.2C46.8,55.9,46.9,57.5,46.9,57.5z M35.9,56.8c-2.2-7.1,0.9-11.5,3.1-13.5
		c0.1,0.6,0.2,1.3,0.3,1.9c0.6,3.1,1.5,5.8,2.7,8.1C39.2,54,37.1,55.5,35.9,56.8z M38.6,38.1c0,0.7,0,1.3,0.1,2
		c-2.1,1.6-8.3,7.2-5.4,17C31,57.8,29,59.4,28,61.5c-0.7-0.3-1.5-0.5-2.3-0.5c-0.9,0-1.7,0.2-2.4,0.5V34.8c0.1-1.4,1.6-1.4,1.9-1.4
		h14.1C38.8,34.9,38.6,36.5,38.6,38.1z M60.5,29.3h20.2c0.6,0,1.2,0.5,1.2,1.2v35.7c0,0.2-0.1,0.4-0.2,0.5h-2.2h1
		c0.2-0.6,0.3-1.2,0.3-1.9c0-1.4-0.5-2.6-1.3-3.6V34.8c0-1.7-1.5-3.2-3.4-3.2H61.3C61.1,30.8,60.8,30,60.5,29.3z M50.5,19.5
		c0.8,0.8,2.4,3.1,3.9,4.9c-2.1,1.6-5.6,1.6-7.7,0C48,22.6,49.7,20.3,50.5,19.5z M50.5,27.5c1.8,0,3.6-0.6,5.1-1.7
		c2.2,3.4,4.2,7.7,4.2,12.3c0,2.3-0.2,4.5-0.6,6.6c-0.6,3.3-1.6,6.1-3,8.4c-0.7,0.1-1.3,0.1-2,0.1v-0.9c-0.1-0.5-0.5-0.8-1-0.8h-5.3
		c-0.5,0-0.9,0.3-1,0.8v0.9c-0.7,0-1.3-0.1-2-0.1c-1.4-2.2-2.4-5.1-3-8.4c-0.4-2.1-0.6-4.3-0.6-6.6c0-4.7,2-9,4.2-12.3
		C46.9,26.9,48.7,27.5,50.5,27.5z M19.1,30.5c0-0.6,0.5-1.2,1.2-1.2h20.2c-0.3,0.8-0.6,1.5-0.9,2.3H24.8c-1.9,0-3.4,1.4-3.4,3.2V63
		c-0.9,1-1.4,2.3-1.4,3.7h-0.7c-0.1-0.2-0.2-0.3-0.2-0.5C19.1,66.2,19.1,30.5,19.1,30.5z M85.4,72.6c0,0.6-0.5,1.2-1.2,1.2H16.8
		c-0.6,0-1.2-0.5-1.2-1.2v-2.2c0-0.6,0.5-1.2,1.2-1.2h67.4c0.6,0,1.2,0.5,1.2,1.2C85.4,70.4,85.4,72.6,85.4,72.6z"/>
</g>
</svg>
