<svg width="1440" height="734" viewBox="0 0 1440 734" fill="none" xmlns="http://www.w3.org/2000/svg">
<g clip-path="url(#clip0)">
<path d="M1422.08 137.328C1352.17 190.612 1212.33 298.942 1072.5 325.395C932.667 351.848 792.833 298.942 653 231.299C513.167 164.159 373.333 83.541 233.5 103.696C93.6666 123.85 -46.1667 244.777 -116.083 305.241L-186 365.704V406.013V670.541H-92.7778C0.444427 670.541 186.889 670.541 373.333 643.71C559.778 616.376 746.222 563.47 932.667 536.136C1119.11 509.305 1305.56 509.305 1398.78 509.305H1492V406.013V83.541L1422.08 137.328Z" fill="#F08920" fill-opacity="0.15"/>
<path d="M29.0333 160.363C78.0667 171.357 176.133 194.84 274.2 200.177C372.267 205.514 470.333 194.84 568.4 183.099C666.467 171.357 764.533 160.683 862.6 177.441C960.667 194.84 1058.73 239.67 1156.8 262.832C1254.87 285.568 1352.93 285.568 1401.97 285.568H1451V393.374V420.058V453.147L1410.14 447.49C1369.28 441.406 1287.56 430.732 1205.83 436.069C1124.11 441.406 1042.39 464.889 960.667 464.568C878.944 464.889 797.222 441.406 715.5 458.804C633.778 475.562 552.056 533.201 470.333 549.959C388.611 567.358 306.889 543.875 225.167 532.881C143.444 521.46 61.7223 521.46 20.8611 521.46H-20V420.058V393.374V148.942L29.0333 160.363Z" fill="#FC9E18" fill-opacity="0.09"/>
</g>
<defs>
<clipPath id="clip0">
<rect width="1471" height="734" transform="matrix(-1 0 0 1 1451 0)" fill="white"/>
</clipPath>
</defs>
</svg>
