<?xml version="1.0" encoding="utf-8"?>
<!-- Generator: Adobe Illustrator 24.1.0, SVG Export Plug-In . SVG Version: 6.00 Build 0)  -->
<svg version="1.1" id="Layer_1" xmlns="http://www.w3.org/2000/svg" xmlns:xlink="http://www.w3.org/1999/xlink" x="0px" y="0px"
	 viewBox="0 0 1439 971" style="enable-background:new 0 0 1439 971;" xml:space="preserve">
<style type="text/css">
	.st0{opacity:0.55;}
	.st1{opacity:0.35;fill:#FF4200;enable-background:new    ;}
	.st2{opacity:0.11;fill:#FF4200;enable-background:new    ;}
</style>
<g class="st0">
	<path class="st1" d="M47,916c48-22,144-69,240-79.7c96-10.7,192,10.7,288,34.2c96,23.5,192,44.9,288,11.3
		c96-34.8,192-124.5,288-170.9c96-45.5,192-45.5,240-45.5h48V449.7v-53.4V330l-40,11.3c-40,12.2-120,33.5-200,22.9
		c-80-10.7-160-57.7-240-57c-80-0.6-160,46.4-240,11.5c-80-33.5-160-148.9-240-182.4c-80-34.8-160,12.2-240,34.2
		c-80,22.9-160,22.9-200,22.9H-1v202.9v53.4v489.2L47,916z"/>
	<path class="st2" d="M-1,679.9l4.9,6.8c40.9,56.2,122.7,166.8,204.5,222.9c81.8,55.7,163.6,55.7,245.4,39.7
		c81.8-15.4,163.6-48.3,245.4-95.4c81.8-48.3,163.6-110.8,245.4-119.4c81.8-7.9,163.6,39.9,245.4,39.9c81.8,0,163.6-47.8,204.5-71.7
		l40.9-23.9l3.4-1.5l0-8.4V449.5c0,0-104-108.2-160-131.6c-78.6-32.9-160-65.8-320-19.1c-160,47.6-320,227.5-480.1,275.1
		c-160,46.7-338.6,41.7-404.2-35.5C34.7,490.7-1,444.5-1,444.5V631"/>
</g>
</svg>
